<svg width="24" height="24" viewBox="0 0 24 24" fill="none" xmlns="http://www.w3.org/2000/svg">
<g clip-path="url(#clip0_113_310)">
<path d="M11.7308 15C13.3239 15 14.6154 13.6569 14.6154 12C14.6154 10.3431 13.3239 9 11.7308 9C10.1376 9 8.84615 10.3431 8.84615 12C8.84615 13.6569 10.1376 15 11.7308 15Z" stroke="black" stroke-width="2" stroke-linecap="round" stroke-linejoin="round"/>
<path d="M18.8462 15C18.7182 15.3016 18.68 15.6362 18.7365 15.9606C18.7931 16.285 18.9418 16.5843 19.1635 16.82L19.2212 16.88C19.4 17.0657 19.5418 17.2863 19.6386 17.5291C19.7354 17.7719 19.7852 18.0322 19.7852 18.295C19.7852 18.5578 19.7354 18.8181 19.6386 19.0609C19.5418 19.3037 19.4 19.5243 19.2212 19.71C19.0426 19.896 18.8305 20.0435 18.597 20.1441C18.3635 20.2448 18.1133 20.2966 17.8606 20.2966C17.6079 20.2966 17.3576 20.2448 17.1242 20.1441C16.8907 20.0435 16.6786 19.896 16.5 19.71L16.4423 19.65C16.2157 19.4195 15.9279 19.2648 15.616 19.206C15.304 19.1472 14.9823 19.1869 14.6923 19.32C14.4079 19.4468 14.1654 19.6572 13.9945 19.9255C13.8237 20.1938 13.732 20.5082 13.7308 20.83V21C13.7308 21.5304 13.5282 22.0391 13.1675 22.4142C12.8069 22.7893 12.3177 23 11.8077 23C11.2977 23 10.8085 22.7893 10.4479 22.4142C10.0872 22.0391 9.88462 21.5304 9.88462 21V20.91C9.87717 20.579 9.77415 20.258 9.58895 19.9887C9.40375 19.7194 9.14494 19.5143 8.84615 19.4C8.55614 19.2669 8.23443 19.2272 7.92251 19.286C7.61059 19.3448 7.32277 19.4995 7.09615 19.73L7.03846 19.79C6.85986 19.976 6.64777 20.1235 6.41431 20.2241C6.18085 20.3248 5.93061 20.3766 5.67789 20.3766C5.42516 20.3766 5.17492 20.3248 4.94146 20.2241C4.708 20.1235 4.49591 19.976 4.31731 19.79C4.13851 19.6043 3.99666 19.3837 3.89989 19.1409C3.80311 18.8981 3.7533 18.6378 3.7533 18.375C3.7533 18.1122 3.80311 17.8519 3.89989 17.6091C3.99666 17.3663 4.13851 17.1457 4.31731 16.96L4.375 16.9C4.59667 16.6643 4.74537 16.365 4.80193 16.0406C4.85848 15.7162 4.8203 15.3816 4.69231 15.08C4.57042 14.7842 4.36803 14.532 4.11006 14.3543C3.85209 14.1766 3.5498 14.0813 3.24039 14.08H3.07692C2.56689 14.08 2.07775 13.8693 1.7171 13.4942C1.35646 13.1191 1.15385 12.6104 1.15385 12.08C1.15385 11.5496 1.35646 11.0409 1.7171 10.6658C2.07775 10.2907 2.56689 10.08 3.07692 10.08H3.16346C3.48173 10.0723 3.79039 9.96512 4.04933 9.77251C4.30826 9.5799 4.5055 9.31074 4.61539 9C4.74338 8.69838 4.78156 8.36381 4.72501 8.03941C4.66845 7.71502 4.51975 7.41568 4.29808 7.18L4.24039 7.12C4.06158 6.93425 3.91974 6.71368 3.82296 6.47088C3.72619 6.22808 3.67637 5.96783 3.67637 5.705C3.67637 5.44217 3.72619 5.18192 3.82296 4.93912C3.91974 4.69632 4.06158 4.47575 4.24039 4.29C4.41899 4.10405 4.63108 3.95653 4.86454 3.85588C5.098 3.75523 5.34824 3.70343 5.60096 3.70343C5.85368 3.70343 6.10393 3.75523 6.33739 3.85588C6.57084 3.95653 6.78294 4.10405 6.96154 4.29L7.01923 4.35C7.24585 4.58054 7.53367 4.73519 7.84559 4.794C8.15751 4.85282 8.47922 4.81312 8.76923 4.68H8.84615C9.13055 4.55324 9.37309 4.34276 9.54394 4.07447C9.71478 3.80618 9.80646 3.49179 9.80769 3.17V3C9.80769 2.46957 10.0103 1.96086 10.3709 1.58579C10.7316 1.21071 11.2207 1 11.7308 1C12.2408 1 12.7299 1.21071 13.0906 1.58579C13.4512 1.96086 13.6538 2.46957 13.6538 3V3.09C13.6551 3.41179 13.7468 3.72618 13.9176 3.99447C14.0884 4.26276 14.331 4.47324 14.6154 4.6C14.9054 4.73312 15.2271 4.77282 15.539 4.714C15.8509 4.65519 16.1388 4.50054 16.3654 4.27L16.4231 4.21C16.6017 4.02405 16.8138 3.87653 17.0472 3.77588C17.2807 3.67523 17.5309 3.62343 17.7837 3.62343C18.0364 3.62343 18.2866 3.67523 18.5201 3.77588C18.7535 3.87653 18.9656 4.02405 19.1442 4.21C19.323 4.39575 19.4649 4.61632 19.5617 4.85912C19.6584 5.10192 19.7082 5.36217 19.7082 5.625C19.7082 5.88783 19.6584 6.14808 19.5617 6.39088C19.4649 6.63368 19.323 6.85425 19.1442 7.04L19.0865 7.1C18.8649 7.33568 18.7162 7.63502 18.6596 7.95941C18.6031 8.28381 18.6412 8.61838 18.7692 8.92V9C18.8911 9.29577 19.0935 9.54802 19.3515 9.72569C19.6094 9.90337 19.9117 9.99872 20.2212 10H20.3846C20.8946 10 21.3838 10.2107 21.7444 10.5858C22.1051 10.9609 22.3077 11.4696 22.3077 12C22.3077 12.5304 22.1051 13.0391 21.7444 13.4142C21.3838 13.7893 20.8946 14 20.3846 14H20.2981C19.9887 14.0013 19.6864 14.0966 19.4284 14.2743C19.1704 14.452 18.968 14.7042 18.8462 15Z" stroke="black" stroke-width="2" stroke-linecap="round" stroke-linejoin="round"/>
</g>
<defs>
<clipPath id="clip0_113_310">
<rect width="23.0769" height="24" fill="white" transform="translate(0.192307)"/>
</clipPath>
</defs>
</svg>
